<svg width="60" height="60" viewBox="0 0 60 60" fill="none" xmlns="http://www.w3.org/2000/svg">
<rect width="60" height="60" fill="#F5F5F5"/>
<path d="M56.3426 10.3348V54.6281C56.3426 56.1047 55.1414 57.3059 53.6648 57.3059H21.9316C20.4551 57.3059 19.2539 56.1047 19.2539 54.6281V53.9836H48.7055C51.0844 53.9836 53.0203 52.0477 53.0203 49.6688V7.65703H53.6648C55.1414 7.65703 56.3426 8.8582 56.3426 10.3348ZM40.384 43.2773H5.97656C4.69805 43.2773 3.65742 42.2379 3.65742 40.9582V27.416C3.65742 26.1352 4.69805 25.0934 5.97656 25.0934H40.384C41.6625 25.0934 42.7031 26.1352 42.7031 27.416V40.9582C42.7031 42.2379 41.6625 43.2773 40.384 43.2773ZM10.4508 34.1859C10.4508 32.1504 12.1066 30.4945 14.141 30.4945H16.3641C16.8164 30.4945 17.1844 30.1277 17.1844 29.6742C17.1844 29.2219 16.8164 28.8539 16.3641 28.8539H14.141C11.202 28.8539 8.81016 31.2457 8.81016 34.1859C8.81016 37.1273 11.202 39.5203 14.141 39.5203H16.3641C16.8164 39.5203 17.1844 39.1535 17.1844 38.7C17.1844 38.2465 16.8164 37.8797 16.3641 37.8797H14.141C12.1066 37.8797 10.4508 36.2227 10.4508 34.1859ZM20.632 31.9301C20.632 31.1391 21.2766 30.4945 22.0676 30.4945H26.5453C26.9988 30.4945 27.3656 30.1277 27.3656 29.6742C27.3656 29.2219 26.9988 28.8539 26.5453 28.8539H22.0676C20.3719 28.8539 18.9914 30.2344 18.9914 31.9301C18.9914 33.6258 20.3719 35.0063 22.0676 35.0063H24.2895C25.0805 35.0063 25.725 35.6508 25.725 36.4441C25.725 37.2352 25.0805 37.8797 24.2895 37.8797H19.8117C19.3582 37.8797 18.9914 38.2465 18.9914 38.7C18.9914 39.1535 19.3582 39.5203 19.8117 39.5203H24.2895C25.9863 39.5203 27.3656 38.141 27.3656 36.4441C27.3656 34.7461 25.9863 33.3656 24.2895 33.3656H22.0676C21.2766 33.3656 20.632 32.7211 20.632 31.9301ZM30.8168 31.9301C30.8168 31.1391 31.4613 30.4945 32.2523 30.4945H36.7301C37.1836 30.4945 37.5504 30.1277 37.5504 29.6742C37.5504 29.2219 37.1836 28.8539 36.7301 28.8539H32.2523C30.5566 28.8539 29.1762 30.2344 29.1762 31.9301C29.1762 33.6258 30.5566 35.0063 32.2523 35.0063H34.4742C35.2652 35.0063 35.9098 35.6508 35.9098 36.4441C35.9098 37.2352 35.2652 37.8797 34.4742 37.8797H29.9965C29.543 37.8797 29.1762 38.2465 29.1762 38.7C29.1762 39.1535 29.543 39.5203 29.9965 39.5203H34.4742C36.1711 39.5203 37.5504 38.141 37.5504 36.4441C37.5504 34.7461 36.1711 33.3656 34.4742 33.3656H32.2523C31.4613 33.3656 30.8168 32.7211 30.8168 31.9301ZM26.1305 11.8559V3.85547L15.4547 14.5336H23.4527C24.9293 14.5336 26.1305 13.3324 26.1305 11.8559ZM51.3797 49.6688V5.37187C51.3797 3.89531 50.1797 2.69414 48.7055 2.69414H27.7711V11.8559C27.7711 14.2371 25.834 16.1742 23.4527 16.1742H14.2945V23.4527H40.384C42.5672 23.4527 44.3438 25.2305 44.3438 27.416V40.9582C44.3438 43.1426 42.5672 44.918 40.384 44.918H14.2945V49.6688C14.2945 51.143 15.4934 52.343 16.9688 52.343H48.7055C50.1797 52.343 51.3797 51.143 51.3797 49.6688Z" fill="url(#paint0_linear_0_1)" stroke="black" stroke-width="0.51" stroke-miterlimit="10"/>
<defs>
<linearGradient id="paint0_linear_0_1" x1="3.65742" y1="30" x2="56.3426" y2="30" gradientUnits="userSpaceOnUse">
<stop stop-color="#8A00FF"/>
<stop offset="1" stop-color="#E300FF"/>
</linearGradient>
</defs>
</svg>
