<svg width="60" height="58" viewBox="0 0 60 58" fill="none" xmlns="http://www.w3.org/2000/svg">
<rect width="60" height="58" fill="#F5F5F5"/>
<g clip-path="url(#clip0_0_1)">
<path d="M30 58C46.5685 58 60 45.0163 60 29C60 12.9837 46.5685 0 30 0C13.4315 0 0 12.9837 0 29C0 45.0163 13.4315 58 30 58Z" fill="#F15233"/>
<path d="M58.8908 36.8491C57.2941 42.3234 54.0693 47.2238 49.6166 50.9419C45.164 54.66 39.6798 57.032 33.8447 57.7634L18.1145 42.5575L19.9539 31.0147C14.9487 23.0245 24.9553 23.3259 24.9553 23.3259L28.4211 21.5363L31.1329 24.1539L33.6947 21.6966L30.4382 18.6974L32.8974 14.7709L39.2605 20.9258L40.4724 19.0408L58.8908 36.8491Z" fill="url(#paint0_linear_0_1)"/>
<path d="M28.4211 21.5363C27.2825 22.0107 26.0605 22.2698 24.8211 22.2995C21.2684 20.2924 16.4368 22.3834 16.4368 26.7792C16.4368 28.42 17.5066 30.6637 19.1763 31.2132V31.2895C17.9368 31.8237 17.5974 34.5634 19.2434 35.5479V35.6128C17.4395 36.1928 16.2513 37.3146 16.2513 39.2492C16.2513 42.5804 19.4763 43.5076 22.2987 43.5076C25.7368 43.5076 28.2947 42.298 28.2947 38.5891C28.2947 34.0101 21.6197 35.7082 21.6197 33.247C21.6197 32.3732 22.0934 32.0374 22.9184 31.8657C25.6816 31.3696 27.3829 29.2786 27.3829 26.5464C27.3787 26.0821 27.2891 25.6221 27.1184 25.188C27.5597 25.0831 27.9946 24.9544 28.4211 24.8026V21.5363ZM22.2316 37.3947C23.3566 37.3947 24.9553 37.5893 24.9553 39.0126C24.9553 40.4359 23.6684 40.7145 22.4645 40.7145C21.3197 40.7145 19.6026 40.5389 19.6026 39.0851C19.6026 37.6313 21.0632 37.3947 22.2316 37.3947ZM22.0224 29C20.5658 29 19.9539 28.1605 19.9539 26.8136C19.9539 23.6236 23.9842 23.6541 23.9842 26.783C23.9842 28.0957 23.4553 29.0038 22.0105 29.0038L22.0224 29ZM43.7487 35.3762V32.2053C43.1705 32.5599 42.4992 32.7466 41.8145 32.7433C40.5908 32.7433 40.3737 31.5757 40.3737 30.6179V24.7225C42.4697 24.7225 43.7447 24.7874 43.7447 24.7874V21.7118H40.3737C40.3394 20.8204 40.3724 19.9276 40.4724 19.0408H36.7105C36.821 19.9269 36.854 20.8204 36.8092 21.7118H35.2303V24.8026C35.7502 24.7039 36.2825 24.6821 36.8092 24.7378V24.8026H36.7895V30.4614C36.7895 33.2775 37.1842 36.0096 40.7368 36.0096C41.778 36.0395 42.8108 35.822 43.7447 35.3762H43.7487ZM31.8632 14.5C31.245 14.5416 30.6662 14.8084 30.2436 15.2464C29.821 15.6844 29.5859 16.2611 29.5859 16.8601C29.5859 17.459 29.821 18.0357 30.2436 18.4737C30.6662 18.9118 31.245 19.1785 31.8632 19.2201C33.1382 19.2201 34.0974 18.0754 34.0974 16.8772C34.0974 15.6791 33.1579 14.5 31.8632 14.5ZM30.0197 21.6966C30.1382 22.6543 30.1263 34.6245 30.0197 35.815H33.6908C33.5842 34.6703 33.5724 22.662 33.6908 21.7157L30.0197 21.6966Z" fill="white"/>
</g>
<defs>
<linearGradient id="paint0_linear_0_1" x1="22.65" y1="24.3791" x2="48.0142" y2="50.6179" gradientUnits="userSpaceOnUse">
<stop stop-color="#A63823"/>
<stop offset="0.17" stop-color="#A63823" stop-opacity="0.86"/>
<stop offset="0.52" stop-color="#A63823" stop-opacity="0.51"/>
<stop offset="0.97" stop-color="#A63823" stop-opacity="0"/>
</linearGradient>
<clipPath id="clip0_0_1">
<rect width="60" height="58" fill="white"/>
</clipPath>
</defs>
</svg>
