<svg width="60" height="60" viewBox="0 0 60 60" fill="none" xmlns="http://www.w3.org/2000/svg">
<rect width="60" height="60" fill="#F5F5F5"/>
<g clip-path="url(#clip0_0_1)">
<path d="M3.77789 1.98624L7.67201 51.8045C7.70061 52.1702 7.83772 52.5191 8.06579 52.8064C8.29385 53.0937 8.60249 53.3064 8.95218 53.4173L29.4431 59.9139C29.8055 60.0287 30.1945 60.0287 30.5569 59.9139L51.0478 53.4173C51.3975 53.3064 51.7061 53.0937 51.9342 52.8064C52.1623 52.5191 52.2994 52.1702 52.328 51.8045L56.2221 1.98624C56.3059 0.915174 55.4594 5.9375e-07 54.3851 5.9375e-07H5.61501C4.54077 5.9375e-07 3.69428 0.915174 3.77789 1.98624ZM46.2359 17.4432H20.8572L21.6231 24.506H45.6839L44.1099 44.6411L30.0001 49.1145L15.8902 44.6411L15.0679 34.1217H22.4739V39.2816L30.198 41.3546L37.8759 39.2816L38.4716 31.0581H14.8284L13.2587 10.9759H46.7413L46.2359 17.4432Z" fill="#FC490B"/>
</g>
<defs>
<clipPath id="clip0_0_1">
<rect width="60" height="60" fill="white"/>
</clipPath>
</defs>
</svg>
