<svg width="60" height="60" viewBox="0 0 60 60" fill="none" xmlns="http://www.w3.org/2000/svg">
<rect width="60" height="60" fill="#F5F5F5"/>
<g clip-path="url(#clip0_0_1)">
<path d="M29.7029 11.1175C26.9305 13.0674 23.7883 15.2774 22.1047 18.9338C19.1804 25.313 28.0885 32.2712 28.4693 32.5643C28.558 32.6326 28.6674 32.6686 28.7793 32.6663C28.8913 32.664 28.9991 32.6236 29.0849 32.5517C29.1707 32.4798 29.2295 32.3808 29.2514 32.271C29.2734 32.1612 29.2573 32.0473 29.2057 31.9479C29.1735 31.8858 25.9759 25.6748 26.0947 21.2191C26.1368 19.6672 28.3086 17.9067 30.6079 16.0428C32.7137 14.3356 35.1008 12.4007 36.4975 10.1372C39.5636 5.15487 36.1558 0.255708 36.121 0.206723C36.0553 0.114548 35.96 0.0477933 35.8509 0.0176979C35.7418 -0.0123974 35.6257 -0.00399589 35.5221 0.0414881C35.4186 0.0871155 35.3339 0.167031 35.2824 0.267777C35.2309 0.368524 35.2156 0.483949 35.2392 0.594615C35.2462 0.627076 35.9089 3.86685 34.0648 7.20472C33.3052 8.58402 31.6359 9.75801 29.7029 11.1175Z" fill="#DB380E"/>
<path d="M41.3834 13.3145C41.4778 13.2432 41.5435 13.1403 41.5681 13.0245C41.5928 12.9087 41.5749 12.7879 41.5177 12.6843C41.4605 12.5806 41.3679 12.5011 41.2568 12.4603C41.1457 12.4194 41.0235 12.4201 40.9128 12.462C40.4419 12.6411 29.3797 16.9052 29.3797 22.0573C29.3797 25.6089 30.8968 27.4851 32.0046 28.8552C32.4391 29.3927 32.8143 29.8567 32.9379 30.2529C33.2859 31.3947 32.4614 33.4584 32.1146 34.1573C32.066 34.2551 32.0512 34.3663 32.0727 34.4733C32.0943 34.5804 32.1508 34.6773 32.2335 34.7487C32.3162 34.8201 32.4203 34.8619 32.5294 34.8675C32.6385 34.8732 32.7463 34.8423 32.8359 34.7799C33.0261 34.6477 37.4844 31.4956 36.6848 27.6979C36.3869 26.2544 35.6776 25.1997 35.0517 24.269C34.0821 22.827 33.3818 21.7854 34.4442 19.8617C35.689 17.6178 41.3263 13.3572 41.3834 13.3145Z" fill="#DB380E"/>
<path d="M12.5881 34.9497C12.3985 35.5174 12.488 36.0807 12.8467 36.5789C14.0459 38.2438 18.2936 39.1605 24.8079 39.1605H24.8087C25.6913 39.1605 26.6232 39.1431 27.5777 39.1089C37.9928 38.7361 41.8558 35.4914 42.0152 35.3535C42.0992 35.2805 42.156 35.1811 42.1762 35.0716C42.1965 34.9621 42.179 34.849 42.1265 34.7507C42.0741 34.6525 41.9899 34.5749 41.8877 34.5307C41.7855 34.4866 41.6713 34.4784 41.5639 34.5075C37.8958 35.509 31.0465 35.8646 26.2957 35.8646C20.9797 35.8646 18.2724 35.4816 17.6096 35.1988C17.9497 34.7318 20.0473 33.8979 22.6467 33.3866C22.7664 33.3629 22.8731 33.2955 22.9459 33.1975C23.0187 33.0995 23.0525 32.978 23.0406 32.8565C23.0288 32.735 22.9722 32.6222 22.8818 32.5401C22.7915 32.458 22.6738 32.4125 22.5518 32.4123C21.0281 32.4123 13.3868 32.5347 12.5881 34.9497ZM47.4391 31.6077C45.2909 31.6077 43.2538 32.6844 43.1681 32.73C43.0716 32.7818 42.9952 32.8644 42.9509 32.9645C42.9066 33.0647 42.897 33.1767 42.9236 33.283C42.9502 33.3892 43.0115 33.4835 43.0977 33.551C43.1839 33.6185 43.2902 33.6553 43.3997 33.6556C43.4453 33.6556 47.982 33.6927 48.3929 36.2848C48.7569 38.521 44.1004 42.1442 42.2754 43.3517C42.18 43.4149 42.1096 43.5095 42.0764 43.6191C42.0432 43.7286 42.0493 43.8464 42.0936 43.9519C42.1379 44.0575 42.2176 44.1443 42.3191 44.1974C42.4205 44.2505 42.5373 44.2666 42.6493 44.2428C43.0824 44.1501 53.2438 41.9109 52.1694 35.9946C51.514 32.3688 49.2351 31.6077 47.4391 31.6077ZM40.4705 42.6277C40.4878 42.5349 40.478 42.4391 40.4423 42.3516C40.4067 42.2642 40.3466 42.1889 40.2693 42.1347L37.8328 40.4281C37.7741 40.3871 37.7072 40.3594 37.6366 40.3469C37.5661 40.3344 37.4937 40.3374 37.4244 40.3557C37.399 40.3621 34.8511 41.032 31.152 41.4427C29.6838 41.6074 28.0394 41.6943 26.3962 41.6943C22.698 41.6943 20.28 41.2598 19.9278 40.941C19.8812 40.8515 19.8959 40.8108 19.9043 40.7882C19.9682 40.6103 20.3111 40.3989 20.5321 40.3152C20.6503 40.2721 20.7474 40.1853 20.8035 40.0728C20.8596 39.9602 20.8704 39.8304 20.8338 39.7101C20.7971 39.5898 20.7158 39.4882 20.6065 39.426C20.4972 39.3638 20.3682 39.3459 20.2461 39.3759C17.802 39.9657 16.6069 40.7904 16.6939 41.8272C16.8483 43.6654 21.106 44.6089 24.7054 44.8583C25.2231 44.8937 25.7829 44.9116 26.3689 44.9116H26.3699C32.3551 44.9116 40.0281 43.0336 40.1048 43.0145C40.1965 42.9921 40.2798 42.9437 40.3447 42.8751C40.4096 42.8065 40.4533 42.7206 40.4705 42.6277ZM22.1019 46.5727C22.1916 46.5143 22.2599 46.4281 22.2961 46.3273C22.3324 46.2265 22.3347 46.1167 22.3027 46.0144C22.2375 45.8043 22.0409 45.6663 21.8202 45.6692C21.4926 45.6779 18.6152 45.8077 18.4137 47.6397C18.3528 48.1872 18.5096 48.6875 18.88 49.1264C19.9132 50.3507 22.702 51.0785 27.4044 51.3511C27.9607 51.3845 28.5258 51.4012 29.0842 51.4012C35.0625 51.4012 39.0889 49.5294 39.2575 49.4497C39.3377 49.4118 39.4062 49.3529 39.4557 49.2792C39.5052 49.2055 39.5338 49.1198 39.5385 49.0312C39.5433 48.9426 39.5239 48.8543 39.4826 48.7758C39.4412 48.6973 39.3794 48.6314 39.3037 48.5852L36.2246 46.7055C36.1177 46.6406 35.9904 46.6186 35.868 46.6437C35.8485 46.6478 33.8935 47.0533 30.943 47.4539C30.3847 47.5298 29.6856 47.5684 28.8653 47.5684C25.918 47.5684 22.6398 47.0868 22.0111 46.7715C22.0019 46.7126 22.0135 46.6379 22.1019 46.5727Z" fill="#73A1FB"/>
<path d="M26.2979 57.053C39.9918 57.0414 47.3415 54.6061 48.7573 53.0736C49.2586 52.5315 49.3127 52.0182 49.2702 51.6829C49.1649 50.8579 48.4134 50.3529 48.3282 50.298C48.1226 50.1658 47.8468 50.2004 47.6865 50.3853C47.5265 50.5702 47.5228 50.8405 47.6833 51.0253C47.7697 51.1364 47.8196 51.3223 47.5671 51.5751C47.001 52.1038 41.2922 53.7084 31.787 54.1905C30.4849 54.2581 29.1192 54.2926 27.7281 54.2928C19.2175 54.2928 12.9891 53.127 12.1715 52.4478C12.4866 51.995 14.6897 51.2716 17.0327 50.8624C17.1616 50.8424 17.2773 50.7721 17.3543 50.6669C17.4314 50.5616 17.4635 50.4301 17.4435 50.3012C17.4236 50.1723 17.3533 50.0566 17.248 49.9795C17.1428 49.9025 17.0112 49.8704 16.8823 49.8903C16.8162 49.8993 16.5919 49.9127 16.3323 49.9286C12.4665 50.1646 7.99913 50.6907 7.76604 52.6825C7.69526 53.2895 7.87562 53.8405 8.3023 54.32C9.34633 55.4931 12.3472 57.0527 26.2974 57.0527L26.2979 57.053Z" fill="#73A1FB"/>
<path d="M51.447 53.5054C51.3529 53.4618 51.2474 53.4491 51.1456 53.4691C51.0437 53.4892 50.9509 53.5409 50.8803 53.617C50.8603 53.6387 48.8014 55.7915 42.6111 57.0558C40.2412 57.5306 35.7927 57.7714 29.3892 57.7714C22.9738 57.7714 16.8691 57.519 16.8083 57.5164C16.5533 57.504 16.3352 57.6894 16.3005 57.9404C16.2837 58.0615 16.3127 58.1845 16.3816 58.2854C16.4506 58.3863 16.5547 58.4579 16.6736 58.4863C16.7371 58.5013 23.1348 60.0001 31.8822 60.0001C36.0776 60.0001 40.1602 59.6595 44.0167 58.987C51.2075 57.7264 51.7109 54.1609 51.7289 54.0097C51.7411 53.9067 51.7204 53.8024 51.6698 53.7118C51.6192 53.6213 51.5412 53.549 51.447 53.5054Z" fill="#73A1FB"/>
</g>
<defs>
<clipPath id="clip0_0_1">
<rect width="60" height="60" fill="white"/>
</clipPath>
</defs>
</svg>
