<svg width="60" height="61" viewBox="0 0 60 61" fill="none" xmlns="http://www.w3.org/2000/svg">
<rect width="60" height="61" fill="#F5F5F5"/>
<g clip-path="url(#clip0_0_1)">
<path d="M42.5625 -5.44643H2.04261C0.914497 -5.44643 0 -4.66924 0 -3.16115V59.8135C0 60.2228 0.914497 61 2.04261 61H57.9931C59.1212 61 60.0357 60.2228 60.0357 59.8135V9.95253C60.0357 9.1267 59.9059 8.86091 59.6769 8.66513L43.431 -5.14149C43.2001 -5.33647 42.888 -5.44607 42.5625 -5.44643Z" fill="#E9E9E0"/>
<path d="M43.2816 -5.26726V8.79209H59.8249L43.2816 -5.26726Z" fill="#D9D7CA"/>
<path d="M57.9931 61H2.04261C1.50088 61 0.98133 60.8171 0.598266 60.4916C0.215203 60.166 0 59.7245 0 59.2641V40.8288H60.0357V59.2641C60.0357 60.2228 59.1212 61 57.9931 61Z" fill="#EEAF4B"/>
<path d="M27.2548 45.2415V54.5535C27.2548 55.1159 27.1334 55.5894 26.8918 55.9726C26.6618 56.344 26.3275 56.6615 25.9187 56.8969C25.511 57.1295 25.0433 57.2921 24.5155 57.3834C23.9878 57.4748 23.4419 57.5211 22.8834 57.5211C22.6027 57.5211 22.2746 57.4961 21.9005 57.4475C21.5263 57.3988 21.1368 57.3241 20.7361 57.2209C20.3354 57.1176 19.95 57.0013 19.5814 56.872C19.249 56.7603 18.9347 56.6132 18.646 56.4342L19.6191 55.1207C19.7462 55.1954 19.9277 55.2749 20.1636 55.3556C20.3996 55.4363 20.6565 55.5122 20.9371 55.5822C21.2163 55.6534 21.5095 55.7139 21.8153 55.7685C22.1211 55.8231 22.4073 55.8492 22.674 55.8492C23.3469 55.8492 23.8858 55.7377 24.2865 55.517C24.6872 55.2963 24.8995 54.919 24.926 54.3898V45.2403H27.2548V45.2415ZM38.6518 54.1631C38.6518 54.595 38.5471 55.0151 38.3363 55.4209C38.1255 55.8267 37.8309 56.1838 37.4483 56.4911C37.0658 56.7985 36.5953 57.0452 36.0354 57.2292C35.4247 57.4204 34.7776 57.5137 34.1268 57.5044C33.8211 57.5044 33.5069 57.4902 33.1816 57.4641C32.8563 57.438 32.5282 57.3905 32.1987 57.3265C31.8678 57.2612 31.5523 57.1722 31.2535 57.0583C30.9547 56.9444 30.6964 56.8068 30.48 56.6442L30.8807 55.2488C31.058 55.3354 31.2842 55.4197 31.5578 55.5004C31.8315 55.5811 32.1135 55.657 32.4067 55.727C32.6985 55.7982 32.9917 55.854 33.2849 55.8979C33.5767 55.9406 33.8504 55.9631 34.1059 55.9631C34.8821 55.9631 35.4769 55.8089 35.8902 55.5004C36.3035 55.1919 36.5101 54.7351 36.5101 54.1299C36.5101 53.7621 36.3635 53.4488 36.0717 53.189C35.7785 52.9291 35.4127 52.6942 34.9743 52.483C34.5359 52.2718 34.0612 52.0618 33.5516 51.8506C33.0471 51.642 32.5678 51.392 32.1205 51.1042C31.6829 50.8256 31.3079 50.4824 31.0133 50.0909C30.7201 49.7017 30.5749 49.2153 30.5749 48.6315C30.5749 48.1023 30.6894 47.6312 30.9184 47.2207C31.1474 46.8101 31.4559 46.4601 31.8441 46.1741C32.2322 45.8882 32.6846 45.6687 33.1997 45.5168C33.7149 45.3649 34.2594 45.2902 34.8319 45.2902C35.4169 45.2902 36.0089 45.3364 36.6064 45.4278C37.204 45.5192 37.6871 45.6687 38.0571 45.8739C37.9711 46.0294 37.8822 46.1837 37.7904 46.3367L37.5042 46.8066C37.4148 46.9525 37.338 47.0747 37.2752 47.172C37.2411 47.2282 37.2029 47.2825 37.1607 47.3346C37.0839 47.3025 36.9988 47.2598 36.9024 47.2052C36.8061 47.1507 36.6693 47.0973 36.4919 47.0427C36.2628 46.9803 36.0256 46.9421 35.7855 46.9288C35.41 46.9073 35.0331 46.9129 34.6588 46.9454C34.4033 46.9679 34.1631 47.0285 33.9327 47.1317C33.7024 47.2349 33.4985 47.3607 33.3212 47.5126C33.1455 47.6598 33.0031 47.8331 32.901 48.024C32.8047 48.1937 32.7528 48.379 32.7488 48.5674C32.7488 48.9993 32.894 49.3481 33.1872 49.6139C33.479 49.8797 33.842 50.1111 34.2748 50.3116C34.7076 50.5121 35.1767 50.7067 35.6877 50.8954C36.196 51.0841 36.6707 51.3154 37.1105 51.5848C37.5502 51.8541 37.9146 52.1935 38.2078 52.5981C38.5038 53.0039 38.6518 53.5248 38.6518 54.1631Z" fill="white"/>
<path d="M18.1503 17.0979V12.3517C18.1503 11.6979 18.7758 11.1652 19.5465 11.1652C19.9168 11.1652 20.2719 11.0402 20.5338 10.8176C20.7956 10.5951 20.9427 10.2933 20.9427 9.97864C20.9427 9.66395 20.7956 9.36214 20.5338 9.13962C20.2719 8.9171 19.9168 8.79209 19.5465 8.79209C17.2372 8.79209 15.358 10.3892 15.358 12.3517V17.0979C15.358 18.4067 14.1056 19.471 12.5656 19.471C12.1953 19.471 11.8402 19.596 11.5784 19.8185C11.3165 20.041 11.1694 20.3428 11.1694 20.6575C11.1694 20.9722 11.3165 21.274 11.5784 21.4965C11.8402 21.7191 12.1953 21.8441 12.5656 21.8441C14.1056 21.8441 15.358 22.9084 15.358 24.2172V28.9633C15.358 30.9259 17.2372 32.523 19.5465 32.523C19.9168 32.523 20.2719 32.398 20.5338 32.1754C20.7956 31.9529 20.9427 31.6511 20.9427 31.3364C20.9427 31.0217 20.7956 30.7199 20.5338 30.4974C20.2719 30.2749 19.9168 30.1499 19.5465 30.1499C18.7758 30.1499 18.1503 29.6171 18.1503 28.9633V24.2172C18.1503 22.7933 17.3936 21.5284 16.2208 20.6575C16.8239 20.2164 17.3083 19.6703 17.6412 19.0561C17.9741 18.4419 18.1478 17.7741 18.1503 17.0979Z" fill="#EEAF4B"/>
<path d="M29.3198 18.2844C30.4764 18.2844 31.414 17.4876 31.414 16.5046C31.414 15.5217 30.4764 14.7248 29.3198 14.7248C28.1631 14.7248 27.2255 15.5217 27.2255 16.5046C27.2255 17.4876 28.1631 18.2844 29.3198 18.2844Z" fill="#EEAF4B"/>
<path d="M46.0739 19.471C44.5339 19.471 43.2816 18.4067 43.2816 17.0979V12.3517C43.2816 10.3892 41.4023 8.79209 39.093 8.79209C38.7227 8.79209 38.3676 8.9171 38.1058 9.13962C37.8439 9.36214 37.6969 9.66395 37.6969 9.97864C37.6969 10.2933 37.8439 10.5951 38.1058 10.8176C38.3676 11.0402 38.7227 11.1652 39.093 11.1652C39.8637 11.1652 40.4892 11.6979 40.4892 12.3517V17.0979C40.4892 18.5217 41.2459 19.7866 42.4187 20.6575C41.8157 21.0986 41.3312 21.6448 40.9983 22.259C40.6654 22.8731 40.4918 23.541 40.4892 24.2172V28.9633C40.4892 29.6171 39.8637 30.1499 39.093 30.1499C38.7227 30.1499 38.3676 30.2749 38.1058 30.4974C37.8439 30.7199 37.6969 31.0217 37.6969 31.3364C37.6969 31.6511 37.8439 31.9529 38.1058 32.1754C38.3676 32.398 38.7227 32.523 39.093 32.523C41.4023 32.523 43.2816 30.9259 43.2816 28.9633V24.2172C43.2816 22.9084 44.5339 21.8441 46.0739 21.8441C46.4442 21.8441 46.7993 21.7191 47.0612 21.4965C47.323 21.274 47.4701 20.9722 47.4701 20.6575C47.4701 20.3428 47.323 20.041 47.0612 19.8185C46.7993 19.596 46.4442 19.471 46.0739 19.471ZM29.3198 23.0306C28.9495 23.0306 28.5944 23.1556 28.3325 23.3781C28.0707 23.6007 27.9236 23.9025 27.9236 24.2172V27.7768C27.9236 28.0915 28.0707 28.3933 28.3325 28.6158C28.5944 28.8383 28.9495 28.9633 29.3198 28.9633C29.6901 28.9633 30.0452 28.8383 30.307 28.6158C30.5689 28.3933 30.716 28.0915 30.716 27.7768V24.2172C30.716 23.9025 30.5689 23.6007 30.307 23.3781C30.0452 23.1556 29.6901 23.0306 29.3198 23.0306Z" fill="#EEAF4B"/>
</g>
<defs>
<clipPath id="clip0_0_1">
<rect width="60" height="61" fill="white"/>
</clipPath>
</defs>
</svg>
