<svg width="60" height="60" viewBox="0 0 60 60" fill="none" xmlns="http://www.w3.org/2000/svg">
<rect width="60" height="60" fill="#F5F5F5"/>
<g clip-path="url(#clip0_0_1)">
<path fill-rule="evenodd" clip-rule="evenodd" d="M13.6419 10.6418C12.9497 10.6418 12.4617 10.7249 11.9688 10.8466V10.9288H12.0489C12.3784 11.5802 12.9497 12.0319 13.355 12.6028C13.6838 13.2559 13.969 13.9064 14.295 14.5595C14.3359 14.5199 14.375 14.4773 14.375 14.4773C14.9498 14.0712 15.2351 13.4181 15.2351 12.4371C14.989 12.1501 14.9497 11.8666 14.7446 11.5801C14.5002 11.1728 13.9689 10.9688 13.6419 10.6418Z" fill="#00758F"/>
<path fill-rule="evenodd" clip-rule="evenodd" d="M55.2666 46.1057C52.0003 46.0239 49.4714 46.35 47.3495 47.2484C46.7372 47.4928 45.7597 47.4928 45.6755 48.2685C46.0041 48.5946 46.0432 49.1242 46.3311 49.5755C46.8199 50.3912 47.6748 51.4912 48.4521 52.0644C49.3088 52.7175 50.1662 53.368 51.0653 53.9394C52.6551 54.9228 54.4517 55.4916 55.9997 56.4717C56.9005 57.0422 57.7955 57.7761 58.6964 58.39C59.1435 58.7162 59.427 59.2474 60 59.4492V59.3258C59.713 58.9597 59.6322 58.4292 59.3486 58.0188C58.9406 57.6135 58.532 57.244 58.1233 56.8378C56.9388 55.2464 55.4684 53.8602 53.8804 52.7175C52.5734 51.8175 49.7149 50.593 49.187 49.0876C49.187 49.0876 49.1445 49.0443 49.1044 49.0042C50.0018 48.9216 51.0653 48.5946 51.9211 48.3469C53.3064 47.9808 54.5718 48.0633 55.9997 47.6972C56.6536 47.5328 57.3067 47.3276 57.9624 47.1267V46.7572C57.2241 46.024 56.6961 45.0431 55.9205 44.3501C53.8411 42.5551 51.5533 40.802 49.1869 39.3306C47.9199 38.514 46.2876 37.9861 44.9406 37.2904C44.4536 37.0452 43.6378 36.9243 43.351 36.5139C42.6161 35.6164 42.2066 34.4345 41.6769 33.372C40.4951 31.1299 39.3498 28.6419 38.3315 26.271C37.5975 24.6804 37.1479 23.0903 36.2504 21.6203C32.0451 14.6815 27.4759 10.4807 20.4571 6.35824C18.9465 5.49949 17.1517 5.13293 15.235 4.68422C14.2132 4.64121 13.1939 4.56211 12.1738 4.52203C11.5199 4.23504 10.8659 3.45902 10.2954 3.09199C7.96853 1.6234 1.97228 -1.55906 0.25736 2.6434C-0.844437 5.29746 1.88967 7.90816 2.82881 9.25512C3.52197 10.1926 4.42115 11.2553 4.90818 12.3149C5.19424 13.0089 5.27603 13.7445 5.56302 14.478C6.21517 16.2734 6.82666 18.2736 7.68494 19.9477C8.13283 20.8046 8.6215 21.7038 9.19291 22.4753C9.52244 22.927 10.0921 23.1284 10.2147 23.8654C9.64502 24.6802 9.60072 25.9045 9.2747 26.9255C7.8067 31.5372 8.37728 37.2502 10.4591 40.6365C11.1106 41.6565 12.6628 43.902 14.7447 43.0429C16.5804 42.3097 16.1726 39.9834 16.7031 37.9441C16.8249 37.4511 16.7431 37.1276 16.9874 36.8016V36.8842C17.5579 38.0251 18.1309 39.1245 18.6614 40.2705C19.9276 42.2681 22.1296 44.35 23.9679 45.7363C24.9445 46.4736 25.7202 47.7363 26.9446 48.1868V48.0634H26.8637C26.6185 47.6973 26.2524 47.5329 25.9254 47.2485C25.1905 46.5137 24.3765 45.6154 23.8027 44.7996C22.0895 42.5152 20.5773 39.9837 19.2336 37.3721C18.5788 36.1043 18.0093 34.7181 17.4778 33.4535C17.2335 32.9665 17.2335 32.2295 16.8247 31.9855C16.2108 32.8822 15.3158 33.6587 14.8672 34.7572C14.0915 36.5137 14.0107 38.6766 13.7229 40.922C13.5603 40.9645 13.6419 40.922 13.5603 41.0028C12.2557 40.6767 11.807 39.3306 11.3156 38.1913C10.0921 35.2903 9.88607 30.6382 10.9486 27.2919C11.233 26.4367 12.4609 23.7434 11.9687 22.9273C11.7226 22.1486 10.9069 21.7042 10.459 21.0893C9.92943 20.314 9.35463 19.3365 8.99099 18.4778C8.01095 16.1932 7.51888 13.6622 6.46127 11.3776C5.97084 10.315 5.11256 9.2127 4.42103 8.23523C3.64361 7.13297 2.78791 6.35812 2.17478 5.05371C1.97217 4.60359 1.68611 3.86883 2.01131 3.38051C2.09228 3.05355 2.25752 2.93051 2.58447 2.84801C3.11228 2.39965 4.62377 2.96977 5.15345 3.21492C6.664 3.825 7.92927 4.3998 9.19291 5.25504C9.76502 5.66426 10.3773 6.43898 11.1104 6.64512H11.9687C13.274 6.92824 14.7445 6.72422 15.9697 7.09289C18.1308 7.78605 20.0892 8.80652 21.8449 9.90832C27.1888 13.296 31.597 18.1124 34.5745 23.8655C35.065 24.8025 35.2711 25.6604 35.7189 26.6378C36.5763 28.6418 37.6382 30.6819 38.4931 32.6387C39.3496 34.5571 40.1679 36.5137 41.3931 38.1077C42.0036 38.9636 44.4533 39.4123 45.5553 39.8618C46.3692 40.228 47.6363 40.555 48.3711 41.0028C49.7591 41.8587 51.1436 42.8395 52.4515 43.7796C53.1029 44.269 55.144 45.2883 55.2666 46.1057Z" fill="#00758F"/>
</g>
<defs>
<clipPath id="clip0_0_1">
<rect width="60" height="60" fill="white"/>
</clipPath>
</defs>
</svg>
