<svg width="61" height="61" viewBox="0 0 61 61" fill="none" xmlns="http://www.w3.org/2000/svg">
<rect width="61" height="61" fill="#F5F5F5"/>
<g clip-path="url(#clip0_0_1)">
<path d="M47.5215 49.5295C40.6997 49.5295 31.6463 46.4261 23.7875 41.9807C13.1633 35.9697 5.21042 28.0295 3.52783 21.7516C2.73992 18.8134 3.42617 16.7496 4.14292 15.5372C8.5095 8.12062 24.4407 11.7959 37.21 19.0218C47.8342 25.0329 55.787 32.973 57.4696 39.251C58.2575 42.1891 57.5713 44.253 56.8545 45.4653C55.1745 48.3171 51.7865 49.5295 47.5215 49.5295ZM13.4683 16.5157C8.48917 16.5157 7.85629 18.2593 8.43833 20.435C9.50583 24.4203 15.5474 31.4785 26.2885 37.5582C39.7161 45.1553 50.7673 45.7881 52.4727 42.8855C52.793 42.3416 52.8235 41.5613 52.5566 40.5675C51.4891 36.5822 45.4475 29.524 34.7065 23.4443C25.9936 18.5135 18.2771 16.5157 13.4683 16.5157Z" fill="#0097A7"/>
<path d="M35.5833 30.5C35.5832 31.1677 35.4515 31.8289 35.1958 32.4457C34.9401 33.0625 34.5655 33.623 34.0932 34.095C33.6209 34.567 33.0603 34.9414 32.4433 35.1968C31.8264 35.4522 31.1652 35.5835 30.4975 35.5833C29.8297 35.5832 29.1686 35.4515 28.5518 35.1958C27.9349 34.9401 27.3745 34.5655 26.9025 34.0932C26.4304 33.6209 26.0561 33.0603 25.8007 32.4434C25.5453 31.8264 25.414 31.1652 25.4141 30.4975C25.4145 29.1489 25.9505 27.8558 26.9043 26.9025C27.8581 25.9492 29.1515 25.4138 30.5 25.4141C31.8485 25.4145 33.1417 25.9505 34.095 26.9043C35.0483 27.8581 35.5837 29.1515 35.5833 30.5Z" fill="#607D8B"/>
<path d="M30.5 61C22.1557 61 17.7917 45.656 17.7917 30.5C17.7917 15.344 22.1557 -9.08971e-07 30.5 -9.08971e-07C38.8443 -9.08971e-07 43.2083 15.344 43.2083 30.5C43.2083 45.656 38.8443 61 30.5 61ZM30.5 5.08333C27.4652 5.08333 22.875 15.2195 22.875 30.5C22.875 45.7805 27.4652 55.9167 30.5 55.9167C33.5347 55.9167 38.125 45.7805 38.125 30.5C38.125 15.2195 33.5347 5.08333 30.5 5.08333Z" fill="#00BCD4"/>
<path d="M35.9391 13.6233C34.1345 14.1825 32.3045 14.8942 30.4999 15.6821C32.5841 16.5717 34.6428 17.5883 36.6508 18.7067L37.1083 18.5542C36.7778 16.7496 36.3712 15.0975 35.9391 13.6233ZM56.857 15.5296C54.3662 11.3104 48.1391 10.675 40.8699 12.2762C41.3274 13.8267 41.7087 15.4788 42.0137 17.1817C44.1233 16.7242 45.9787 16.5208 47.5291 16.5208C52.648 16.5208 53.0877 18.3813 52.5616 20.435C52.1041 22.1379 50.7316 24.4254 48.4695 26.9671C43.8843 31.9996 36.8109 36.8313 30.4999 39.7517C32.6603 40.7938 34.7191 41.6325 36.6508 42.2933C40.8445 39.894 46.82 36.2594 52.0787 30.5C54.8491 27.4754 56.7553 24.4763 57.467 21.7567C58.0541 19.5886 57.9576 17.4435 56.857 15.5296ZM37.1083 18.5542C36.7778 16.7496 36.3712 15.0975 35.9391 13.6233C34.1345 14.1825 32.3045 14.8942 30.4999 15.6821C32.5841 16.5717 34.6428 17.5883 36.6508 18.7067L37.1083 18.5542ZM23.8916 42.4458C24.222 44.2504 24.6287 45.9279 25.0608 47.4021C26.8653 46.8175 28.6953 46.1313 30.4999 45.3433C28.4158 44.4283 26.3316 43.4117 24.3491 42.2933L23.8916 42.4458ZM16.1649 30.5C20.5081 26.7891 25.3294 23.6774 30.4999 21.2483C28.3395 20.2062 26.2808 19.3675 24.3491 18.7067C20.1553 21.106 16.4013 23.5028 12.5303 26.9671C9.05842 29.9815 4.70455 34.7624 3.53284 39.2433C2.06884 44.7155 5.14934 49.5371 13.4708 49.5371C15.5295 49.5371 17.7662 49.2575 20.1299 48.7238C19.6724 47.1733 19.2912 45.5213 18.9862 43.8183C14.2078 44.835 7.21826 45.3255 8.43826 40.565C9.40917 36.9482 13.3818 32.973 16.1649 30.5Z" fill="#4DD0E1"/>
<path d="M23.0503 35.6062C23.2105 37.8963 23.4748 40.0338 23.8154 41.996L24.3491 42.2933H24.3517C26.3494 43.399 28.4158 44.4156 30.5 45.3179V39.7542C27.9343 38.5251 25.4464 37.1399 23.0503 35.6062ZM16.1751 30.4924L16.165 30.5C15.0568 31.4862 13.758 32.7113 12.5355 34.0558C14.2435 35.563 16.1446 37.0499 18.1983 38.4758C17.9706 36.2746 17.8383 34.0647 17.8018 31.8522C17.2504 31.41 16.7081 30.9566 16.1751 30.4924ZM25.0557 13.6106C24.5827 15.2325 24.1966 16.8784 23.8993 18.5415C26.1531 19.3061 28.3575 20.2092 30.5 21.2458V15.6821C28.7179 14.9086 26.9012 14.2174 25.0557 13.6106ZM13.4759 11.4705C9.2135 11.4705 5.82292 12.6829 4.14288 15.5347C3.42867 16.747 2.74242 18.8109 3.53034 21.749C4.25471 24.4534 6.14317 27.4678 8.90851 30.5025C10.1133 29.1783 11.3714 27.9736 12.5329 26.9671L12.5507 26.9518C10.2759 24.4254 8.89834 22.1455 8.44084 20.435C7.85626 18.2619 8.49167 16.5158 13.4708 16.5158C15.0238 16.5158 16.8792 16.7242 18.971 17.1715C19.2912 15.4559 19.6775 13.8114 20.1274 12.261C17.7713 11.7501 15.5245 11.4705 13.4759 11.4705Z" fill="#008391"/>
<path d="M30.5 25.4167C29.1518 25.4167 27.8589 25.9522 26.9055 26.9055C25.9522 27.8589 25.4167 29.1518 25.4167 30.5C25.4167 31.8482 25.9522 33.1412 26.9055 34.0945C27.8589 35.0478 29.1518 35.5833 30.5 35.5833V25.4167Z" fill="#546D79"/>
<path d="M23.0529 25.3735C21.2661 26.5274 19.4997 27.7906 17.8044 29.1453C17.7892 30.0475 17.7892 30.9499 17.8044 31.8522C17.8425 34.0812 17.9747 36.3052 18.2009 38.4757C18.3915 40.3083 18.6482 42.1002 18.971 43.8234L18.9862 43.8209C19.2912 45.5238 19.675 47.1759 20.13 48.7263H20.1249C22.2167 55.9243 25.7013 61 30.5 61V55.9167C28.5455 55.9167 25.9453 51.7127 24.3441 44.6393C24.1761 43.9118 24.0252 43.1804 23.8917 42.4458H23.8967C23.4914 40.183 23.2097 37.8997 23.0529 35.6062C22.815 32.1994 22.815 28.7802 23.0529 25.3735ZM30.5 -9.08971e-07C25.7039 -9.08971e-07 22.2218 5.07062 20.1275 12.261C19.6776 13.8114 19.2912 15.4559 18.971 17.1715C18.6419 18.9429 18.385 20.7269 18.2009 22.5192C20.0247 21.2761 21.8977 20.1069 23.8154 19.0142C24.1246 17.1907 24.5387 15.3865 25.0557 13.6106C26.6468 8.21212 28.8149 5.08333 30.5 5.08333V-9.08971e-07Z" fill="#00A4B9"/>
<path d="M24.3491 42.2933L23.8967 42.4458H23.8916C24.1988 44.1163 24.589 45.7704 25.0608 47.4021C26.8653 46.8175 28.6953 46.1312 30.4999 45.3433C28.4158 44.4283 26.3316 43.4117 24.3491 42.2933ZM24.3491 18.7067C24.1712 18.8083 23.9907 18.91 23.8153 19.0142C21.871 20.1351 20.0181 21.2687 18.2008 22.5192C16.2242 23.8739 14.3369 25.3545 12.5507 26.9518L12.5329 26.9671C11.3739 27.9736 10.1158 29.1783 8.90847 30.5025C6.50405 33.1433 4.31313 36.2594 3.53284 39.2433C2.06884 44.7155 5.14934 49.5371 13.4708 49.5371C15.527 49.5371 17.7636 49.2575 20.1248 48.7237H20.1299C19.6724 47.1733 19.2912 45.5212 18.9862 43.8183L18.9709 43.8209C17.2273 44.192 15.1889 44.4919 13.3665 44.4919C10.1945 44.4919 7.66559 43.5845 8.4408 40.565C9.02538 38.3893 10.6953 36.0866 12.538 34.0558C13.758 32.7112 15.0542 31.4862 16.1649 30.5L16.1751 30.4924C18.3525 28.6365 20.6501 26.9265 23.0528 25.3735C25.4368 23.8278 27.9251 22.4495 30.4999 21.2483C29.2939 20.6674 28.069 20.1265 26.8272 19.6268C26.0092 19.2988 25.1829 18.992 24.3491 18.7067Z" fill="#43B5C4"/>
</g>
<defs>
<clipPath id="clip0_0_1">
<rect width="61" height="61" fill="white"/>
</clipPath>
</defs>
</svg>
